<svg xmlns="http://www.w3.org/2000/svg" xmlns:xlink="http://www.w3.org/1999/xlink" width="227.2mm" height="428.7mm" viewBox="0 0 644 1215.3"><defs><style>.a{fill:none;}.b{clip-path:url(#a);}.c{clip-path:url(#b);}.d{fill:#feeb19;}.e{clip-path:url(#c);}.f{clip-path:url(#e);}.g{clip-path:url(#f);}.h{clip-path:url(#h);}.i{clip-path:url(#j);}.j{clip-path:url(#l);}.k{clip-path:url(#n);}.l{clip-path:url(#o);}.m{clip-path:url(#p);}.n{clip-path:url(#r);}.o{clip-path:url(#t);}.p{clip-path:url(#v);}.q{clip-path:url(#x);}.r{clip-path:url(#z);}</style><clipPath id="a" transform="translate(3.5 3.4)"><polygon class="a" points="26.3 25.8 26.3 33.2 -0.1 33.2 -0.1 0 8.8 0 8.8 25.8 26.3 25.8"/></clipPath><clipPath id="b" transform="translate(3.5 3.4)"><rect class="a" x="-27.2" y="-86.7" width="694.1" height="650.7"/></clipPath><clipPath id="c" transform="translate(3.5 3.4)"><path class="a" d="M29.8,10.5h-.6c-1-.1-2.2-.7-2.2-1.7s1.4-1.9,3.1-1.9,3,.9,3,2.1-2,3.4-4.4,4.6H26.3c1.4-.5,2.9-2.2,2.9-3Z"/></clipPath><clipPath id="e" transform="translate(3.5 3.4)"><rect class="a" x="503.5" width="6.8" height="33.2"/></clipPath><clipPath id="f" transform="translate(3.5 3.4)"><path class="a" d="M545.8.3V30.6H539V23.2c0-7.2.2-10.7.2-10.7h0s-2.3,4.2-2.6,4.6l-3.4,6.1h-3.6l-3.4-6.1c-.2-.4-2.5-4.6-2.6-4.6h0s.2,3.6.2,10.7v7.4H517V.3h6.5l5.4,9.2c2.1,3.6,2.4,4.4,2.5,4.4h0l2.5-4.4L539.3.3Z"/></clipPath><clipPath id="h" transform="translate(3.5 3.4)"><path class="a" d="M565.5,19.4l-2-5.9c-.6-1.7-1.4-4.5-1.4-4.5h0s-.8,2.7-1.4,4.5l-2,5.9Zm2.2,6.4H556.4l-1.6,4.8h-7.4L558.9.3h6.5l11.5,30.3h-7.4Z"/></clipPath><clipPath id="j" transform="translate(3.5 3.4)"><path class="a" d="M597.9,28.7a11.2,11.2,0,0,1-7.8,3.1c-8.2,0-14.9-6.6-14.9-15.8S581.8.2,590.1.2a14.5,14.5,0,0,1,13,8.1l-7,1.9a8.1,8.1,0,0,0-6-2.8c-4.8,0-7.7,3.6-7.7,8.6s3.4,8.7,8.1,8.7,6.6-2.5,7.4-4.8h-7.5V14h13.4V31.1h-5.9a13.2,13.2,0,0,0,0-2.4Z"/></clipPath><clipPath id="l" transform="translate(3.5 3.4)"><polygon class="a" points="637.1 25.8 637.1 33.2 610.6 33.2 610.6 0 636.8 0 636.8 7.5 619.3 7.5 619.3 12.9 633 12.9 633 19.9 619.3 19.9 619.3 25.8 637.1 25.8"/></clipPath><clipPath id="n" transform="translate(3.5 3.4)"><path class="a" d="M18.1,1186a5.5,5.5,0,0,0-5.4-3.9c-2.3,0-3.6,1.1-3.6,2.3s3.2,2.7,7,4.1,9.6,4.2,9.6,9.4-5,9.4-12.3,9.4-11.3-3.5-13.3-9.1l7.2-1.9a6.8,6.8,0,0,0,6.4,4.6c2.7,0,4-1.2,4-2.7s-3.7-3-8.2-4.7-8.1-3.4-8.1-8.7,5-9,11.8-9,10.8,3.5,12.3,8.3Z"/></clipPath><clipPath id="o" transform="translate(3.5 3.4)"><rect class="a" x="-27.2" y="722.1" width="694.1" height="650.7"/></clipPath><clipPath id="p" transform="translate(3.5 3.4)"><path class="a" d="M44.8,1195.5l-2.3-5.9c-.7-1.7-1.5-4.4-1.5-4.4h0l-1.5,4.4-2.3,5.9Zm2.4,6.4H34.7l-1.8,4.7H24.8l12.6-30.2h7.2l12.6,30.2H49Z"/></clipPath><clipPath id="r" transform="translate(3.5 3.4)"><path class="a" d="M87.1,1176.4v30.2H80l-6.4-8.4c-2.9-3.8-7.1-9.5-7.2-9.5h0v18H58.8v-30.2h7.1l6.7,8.6c2,2.6,6.8,9.1,6.9,9.1h0v-17.7h7.6Z"/></clipPath><clipPath id="t" transform="translate(3.5 3.4)"><path class="a" d="M107.9,1186a5.5,5.5,0,0,0-5.4-3.9c-2.3,0-3.6,1.1-3.6,2.3s3.2,2.7,7,4.1,9.6,4.2,9.6,9.4-5,9.4-12.3,9.4-11.3-3.5-13.3-9.1l7.2-1.9a6.8,6.8,0,0,0,6.4,4.6c2.7,0,4-1.2,4-2.7s-3.7-3-8.2-4.7-8.1-3.4-8.1-8.7,5-9,11.8-9,10.8,3.5,12.3,8.3Z"/></clipPath><clipPath id="v" transform="translate(3.5 3.4)"><path class="a" d="M565.7,1177.6v30.2h-7.1l-6.4-8.4c-2.9-3.8-7.1-9.5-7.2-9.5h0v18h-7.6v-30.2h7.1l6.7,8.6c2,2.6,6.8,9.1,6.9,9.1h0v-17.7h7.6Z"/></clipPath><clipPath id="x" transform="translate(3.5 3.4)"><path class="a" d="M585.5,1201.3a8.1,8.1,0,0,0,8.5-8.5c0-5.1-3.4-8.5-8.5-8.5s-8.5,3.4-8.5,8.5a8.1,8.1,0,0,0,8.5,8.5m0-24.3c9,0,16.4,6.6,16.4,15.7s-7.3,15.7-16.4,15.7-16.3-6.6-16.3-15.7,7.2-15.7,16.3-15.7"/></clipPath><clipPath id="z" transform="translate(3.5 3.4)"><path class="a" d="M636.8,1177.6v30.2h-7.4v-7.4c0-7.2.3-10.7.2-10.7h0s-2.6,4.1-2.8,4.6l-3.7,6h-3.9l-3.7-6-2.8-4.6h0s.2,3.5.2,10.7v7.4h-7.4v-30.2h7.1l5.9,9.1c2.3,3.6,2.7,4.4,2.7,4.4h0s.4-.8,2.7-4.4l5.9-9.1Z"/></clipPath></defs><title>logo-height</title><g class="b"><g class="c"><rect class="d" width="33.2" height="40"/></g></g><g class="e"><g class="c"><rect class="d" x="26.4" y="6.8" width="13.6" height="13.6"/></g></g><g class="f"><rect class="d" x="503.6" width="13.6" height="40"/></g><g class="g"><g class="c"><rect class="d" x="517.3" y="0.3" width="35.4" height="37.1"/></g></g><g class="h"><g class="c"><rect class="d" x="547.5" y="0.3" width="36.2" height="37.1"/></g></g><g class="i"><g class="c"><rect class="d" x="575.4" y="0.3" width="35.3" height="38.3"/></g></g><g class="j"><g class="c"><rect class="d" x="610.8" width="33.2" height="40"/></g></g><g class="k"><g class="l"><rect class="d" x="0.2" y="1175.8" width="32.4" height="38.2"/></g></g><g class="m"><g class="l"><rect class="d" x="24.9" y="1176.4" width="39.1" height="37"/></g></g><g class="n"><g class="l"><rect class="d" x="58.9" y="1176.4" width="35" height="37"/></g></g><g class="o"><g class="l"><rect class="d" x="90" y="1175.8" width="32.4" height="38.2"/></g></g><g class="p"><g class="l"><rect class="d" x="537.5" y="1177.7" width="35" height="37"/></g></g><g class="q"><g class="l"><rect class="d" x="569.2" y="1177.1" width="39.5" height="38.2"/></g></g><g class="r"><g class="l"><rect class="d" x="605.4" y="1177.7" width="38.2" height="37"/></g></g></svg>