<?xml version="1.0" encoding="utf-8"?>
<!-- Generator: Adobe Illustrator 24.0.3, SVG Export Plug-In . SVG Version: 6.00 Build 0)  -->
<svg version="1.1" id="Calque_1" xmlns="http://www.w3.org/2000/svg" xmlns:xlink="http://www.w3.org/1999/xlink" x="0px" y="0px"
	 viewBox="0 0 637.1 400.2" style="enable-background:new 0 0 637.1 400.2;" xml:space="preserve">
<style type="text/css">
	.st0{clip-path:url(#SVGID_2_);}
	.st1{clip-path:url(#SVGID_4_);fill:#FEEB19;}
	.st2{clip-path:url(#SVGID_6_);}
	.st3{clip-path:url(#SVGID_8_);fill:#FEEB19;}
	.st4{clip-path:url(#SVGID_10_);fill:#FEEB19;}
	.st5{clip-path:url(#SVGID_12_);}
	.st6{clip-path:url(#SVGID_14_);fill:#FEEB19;}
	.st7{clip-path:url(#SVGID_16_);}
	.st8{clip-path:url(#SVGID_18_);fill:#FEEB19;}
	.st9{clip-path:url(#SVGID_20_);}
	.st10{clip-path:url(#SVGID_22_);fill:#FEEB19;}
	.st11{clip-path:url(#SVGID_24_);}
	.st12{clip-path:url(#SVGID_26_);fill:#FEEB19;}
	.st13{clip-path:url(#SVGID_28_);}
	.st14{clip-path:url(#SVGID_30_);fill:#FEEB19;}
	.st15{clip-path:url(#SVGID_32_);}
	.st16{clip-path:url(#SVGID_34_);fill:#FEEB19;}
	.st17{clip-path:url(#SVGID_36_);}
	.st18{clip-path:url(#SVGID_38_);fill:#FEEB19;}
	.st19{clip-path:url(#SVGID_40_);}
	.st20{clip-path:url(#SVGID_42_);fill:#FEEB19;}
	.st21{clip-path:url(#SVGID_44_);}
	.st22{clip-path:url(#SVGID_46_);fill:#FEEB19;}
	.st23{clip-path:url(#SVGID_48_);}
	.st24{clip-path:url(#SVGID_50_);fill:#FEEB19;}
	.st25{clip-path:url(#SVGID_52_);}
	.st26{clip-path:url(#SVGID_54_);fill:#FEEB19;}
</style>
<g>
	<defs>
		<polygon id="SVGID_1_" points="26.3,25.8 26.3,33.2 -0.1,33.2 -0.1,0 8.8,0 8.8,25.8 		"/>
	</defs>
	<clipPath id="SVGID_2_">
		<use xlink:href="#SVGID_1_"  style="overflow:visible;"/>
	</clipPath>
	<g class="st0">
		<defs>
			<rect id="SVGID_3_" x="-27.2" y="-86.7" width="694.1" height="650.7"/>
		</defs>
		<clipPath id="SVGID_4_">
			<use xlink:href="#SVGID_3_"  style="overflow:visible;"/>
		</clipPath>
		<rect x="-3.5" y="-3.4" class="st1" width="33.2" height="40"/>
	</g>
</g>
<g>
	<defs>
		<path id="SVGID_5_" d="M29.8,10.5l-0.6,0c-1-0.1-2.2-0.7-2.2-1.7c0-1,1.4-1.9,3.1-1.9c1.7,0,3,0.9,3,2.1c0,1.5-2,3.4-4.4,4.6h-2.4
			c1.4-0.5,2.9-2.2,2.9-3L29.8,10.5z"/>
	</defs>
	<clipPath id="SVGID_6_">
		<use xlink:href="#SVGID_5_"  style="overflow:visible;"/>
	</clipPath>
	<g class="st2">
		<defs>
			<rect id="SVGID_7_" x="-27.2" y="-86.7" width="694.1" height="650.7"/>
		</defs>
		<clipPath id="SVGID_8_">
			<use xlink:href="#SVGID_7_"  style="overflow:visible;"/>
		</clipPath>
		<rect x="22.9" y="3.4" class="st3" width="13.6" height="13.6"/>
	</g>
</g>
<g>
	<defs>
		<rect id="SVGID_9_" x="503.5" y="0" width="6.8" height="33.2"/>
	</defs>
	<clipPath id="SVGID_10_">
		<use xlink:href="#SVGID_9_"  style="overflow:visible;"/>
	</clipPath>
	<rect x="500.1" y="-3.4" class="st4" width="13.6" height="40"/>
</g>
<g>
	<defs>
		<path id="SVGID_11_" d="M545.8,0.3v30.3h-6.8v-7.4c0-7.2,0.2-10.7,0.2-10.7h0c0,0-2.3,4.2-2.6,4.6l-3.4,6.1h-3.6l-3.4-6.1
			c-0.2-0.4-2.5-4.6-2.6-4.6h0c0,0,0.2,3.6,0.2,10.7v7.4h-6.8V0.3h6.5l5.4,9.2c2.1,3.6,2.4,4.4,2.5,4.4h0c0,0,0.4-0.8,2.5-4.4
			l5.4-9.2H545.8z"/>
	</defs>
	<clipPath id="SVGID_12_">
		<use xlink:href="#SVGID_11_"  style="overflow:visible;"/>
	</clipPath>
	<g class="st5">
		<defs>
			<rect id="SVGID_13_" x="-27.2" y="-86.7" width="694.1" height="650.7"/>
		</defs>
		<clipPath id="SVGID_14_">
			<use xlink:href="#SVGID_13_"  style="overflow:visible;"/>
		</clipPath>
		<rect x="513.8" y="-3.1" class="st6" width="35.4" height="37.1"/>
	</g>
</g>
<g>
	<defs>
		<path id="SVGID_15_" d="M565.5,19.4l-2-5.9c-0.6-1.7-1.4-4.5-1.4-4.5h0c0,0-0.8,2.7-1.4,4.5l-2,5.9H565.5z M567.7,25.8h-11.3
			l-1.6,4.8h-7.4l11.5-30.3h6.5l11.5,30.3h-7.4L567.7,25.8z"/>
	</defs>
	<clipPath id="SVGID_16_">
		<use xlink:href="#SVGID_15_"  style="overflow:visible;"/>
	</clipPath>
	<g class="st7">
		<defs>
			<rect id="SVGID_17_" x="-27.2" y="-86.7" width="694.1" height="650.7"/>
		</defs>
		<clipPath id="SVGID_18_">
			<use xlink:href="#SVGID_17_"  style="overflow:visible;"/>
		</clipPath>
		<rect x="544" y="-3.1" class="st8" width="36.2" height="37.1"/>
	</g>
</g>
<g>
	<defs>
		<path id="SVGID_19_" d="M597.9,28.7c-1.7,1.9-5,3.1-7.8,3.1c-8.2,0-14.9-6.6-14.9-15.8c0-9.1,6.6-15.8,14.9-15.8
			c5.6,0,10.4,3.1,13,8.1l-7,1.9c-1.4-1.7-3.8-2.8-6-2.8c-4.8,0-7.7,3.6-7.7,8.6c0,5.3,3.4,8.7,8.1,8.7c4.6,0,6.6-2.5,7.4-4.8v0
			h-7.5V14h13.4v17.1h-5.9C597.9,29.2,598,28.8,597.9,28.7L597.9,28.7z"/>
	</defs>
	<clipPath id="SVGID_20_">
		<use xlink:href="#SVGID_19_"  style="overflow:visible;"/>
	</clipPath>
	<g class="st9">
		<defs>
			<rect id="SVGID_21_" x="-27.2" y="-86.7" width="694.1" height="650.7"/>
		</defs>
		<clipPath id="SVGID_22_">
			<use xlink:href="#SVGID_21_"  style="overflow:visible;"/>
		</clipPath>
		<rect x="571.9" y="-3.1" class="st10" width="35.3" height="38.3"/>
	</g>
</g>
<g>
	<defs>
		<polygon id="SVGID_23_" points="637.1,25.8 637.1,33.2 610.6,33.2 610.6,0 636.8,0 636.8,7.5 619.3,7.5 619.3,12.9 633,12.9 
			633,19.9 619.3,19.9 619.3,25.8 		"/>
	</defs>
	<clipPath id="SVGID_24_">
		<use xlink:href="#SVGID_23_"  style="overflow:visible;"/>
	</clipPath>
	<g class="st11">
		<defs>
			<rect id="SVGID_25_" x="-27.2" y="-86.7" width="694.1" height="650.7"/>
		</defs>
		<clipPath id="SVGID_26_">
			<use xlink:href="#SVGID_25_"  style="overflow:visible;"/>
		</clipPath>
		<rect x="607.3" y="-3.4" class="st12" width="33.2" height="40"/>
	</g>
</g>
<g>
	<defs>
		<path id="SVGID_27_" d="M18.1,377.2c-0.8-2.7-3.2-3.9-5.4-3.9c-2.3,0-3.6,1.1-3.6,2.3c0,2,3.2,2.7,7,4.1c4.7,1.6,9.6,4.2,9.6,9.4
			c0,5.5-5,9.4-12.3,9.4c-6.6,0-11.3-3.5-13.3-9.1l7.2-1.9c0.8,2.3,3.1,4.6,6.4,4.6c2.7,0,4-1.2,4-2.7c0-2.4-3.7-3-8.2-4.7
			c-3.8-1.4-8.1-3.4-8.1-8.7c0-4.7,5-9,11.8-9c6,0,10.8,3.5,12.3,8.3L18.1,377.2z"/>
	</defs>
	<clipPath id="SVGID_28_">
		<use xlink:href="#SVGID_27_"  style="overflow:visible;"/>
	</clipPath>
	<g class="st13">
		<defs>
			<rect id="SVGID_29_" x="-27.2" y="-86.7" width="694.1" height="650.7"/>
		</defs>
		<clipPath id="SVGID_30_">
			<use xlink:href="#SVGID_29_"  style="overflow:visible;"/>
		</clipPath>
		<rect x="-3.3" y="363.6" class="st14" width="32.4" height="38.2"/>
	</g>
</g>
<g>
	<defs>
		<path id="SVGID_31_" d="M44.8,386.7l-2.3-5.9c-0.7-1.7-1.5-4.4-1.5-4.4h0c0,0-0.9,2.7-1.5,4.4l-2.3,5.9H44.8z M47.2,393.1H34.7
			l-1.8,4.7h-8.1l12.6-30.2h7.2l12.6,30.2H49L47.2,393.1z"/>
	</defs>
	<clipPath id="SVGID_32_">
		<use xlink:href="#SVGID_31_"  style="overflow:visible;"/>
	</clipPath>
	<g class="st15">
		<defs>
			<rect id="SVGID_33_" x="-27.2" y="-86.7" width="694.1" height="650.7"/>
		</defs>
		<clipPath id="SVGID_34_">
			<use xlink:href="#SVGID_33_"  style="overflow:visible;"/>
		</clipPath>
		<rect x="21.4" y="364.2" class="st16" width="39.1" height="37"/>
	</g>
</g>
<g>
	<defs>
		<path id="SVGID_35_" d="M87.1,367.6v30.2H80l-6.4-8.4c-2.9-3.8-7.1-9.5-7.2-9.5h0c0,0,0,4.7,0,11.3v6.7h-7.6v-30.2h7.1l6.7,8.6
			c2,2.6,6.8,9.1,6.9,9.1h0c0,0,0-5.3,0-10.8v-6.9H87.1z"/>
	</defs>
	<clipPath id="SVGID_36_">
		<use xlink:href="#SVGID_35_"  style="overflow:visible;"/>
	</clipPath>
	<g class="st17">
		<defs>
			<rect id="SVGID_37_" x="-27.2" y="-86.7" width="694.1" height="650.7"/>
		</defs>
		<clipPath id="SVGID_38_">
			<use xlink:href="#SVGID_37_"  style="overflow:visible;"/>
		</clipPath>
		<rect x="55.4" y="364.2" class="st18" width="35" height="37"/>
	</g>
</g>
<g>
	<defs>
		<path id="SVGID_39_" d="M107.9,377.2c-0.8-2.7-3.2-3.9-5.4-3.9c-2.3,0-3.6,1.1-3.6,2.3c0,2,3.2,2.7,7,4.1c4.7,1.6,9.6,4.2,9.6,9.4
			c0,5.5-5,9.4-12.3,9.4c-6.6,0-11.3-3.5-13.3-9.1l7.2-1.9c0.8,2.3,3.1,4.6,6.4,4.6c2.7,0,4-1.2,4-2.7c0-2.4-3.7-3-8.2-4.7
			c-3.8-1.4-8.1-3.4-8.1-8.7c0-4.7,5-9,11.8-9c6,0,10.8,3.5,12.3,8.3L107.9,377.2z"/>
	</defs>
	<clipPath id="SVGID_40_">
		<use xlink:href="#SVGID_39_"  style="overflow:visible;"/>
	</clipPath>
	<g class="st19">
		<defs>
			<rect id="SVGID_41_" x="-27.2" y="-86.7" width="694.1" height="650.7"/>
		</defs>
		<clipPath id="SVGID_42_">
			<use xlink:href="#SVGID_41_"  style="overflow:visible;"/>
		</clipPath>
		<rect x="86.5" y="363.6" class="st20" width="32.4" height="38.2"/>
	</g>
</g>
<g>
	<defs>
		<path id="SVGID_43_" d="M565.7,368.8V399h-7.1l-6.4-8.4c-2.9-3.8-7.1-9.5-7.2-9.5h0c0,0,0,4.7,0,11.3v6.7h-7.6v-30.2h7.1l6.7,8.6
			c2,2.6,6.8,9.1,6.9,9.1h0c0,0,0-5.3,0-10.8v-6.9H565.7z"/>
	</defs>
	<clipPath id="SVGID_44_">
		<use xlink:href="#SVGID_43_"  style="overflow:visible;"/>
	</clipPath>
	<g class="st21">
		<defs>
			<rect id="SVGID_45_" x="-27.2" y="-86.7" width="694.1" height="650.7"/>
		</defs>
		<clipPath id="SVGID_46_">
			<use xlink:href="#SVGID_45_"  style="overflow:visible;"/>
		</clipPath>
		<rect x="534" y="365.5" class="st22" width="35" height="37"/>
	</g>
</g>
<g>
	<defs>
		<path id="SVGID_47_" d="M585.5,392.5c5.1,0,8.5-3.5,8.5-8.5c0-5.1-3.4-8.5-8.5-8.5c-5.1,0-8.5,3.4-8.5,8.5
			C577,389,580.4,392.5,585.5,392.5 M585.5,368.2c9,0,16.4,6.6,16.4,15.7c0,9.1-7.3,15.7-16.4,15.7c-9,0-16.3-6.6-16.3-15.7
			C569.1,374.8,576.4,368.2,585.5,368.2"/>
	</defs>
	<clipPath id="SVGID_48_">
		<use xlink:href="#SVGID_47_"  style="overflow:visible;"/>
	</clipPath>
	<g class="st23">
		<defs>
			<rect id="SVGID_49_" x="-27.2" y="-86.7" width="694.1" height="650.7"/>
		</defs>
		<clipPath id="SVGID_50_">
			<use xlink:href="#SVGID_49_"  style="overflow:visible;"/>
		</clipPath>
		<rect x="565.7" y="364.9" class="st24" width="39.5" height="38.2"/>
	</g>
</g>
<g>
	<defs>
		<path id="SVGID_51_" d="M636.8,368.8V399h-7.4v-7.4c0-7.2,0.3-10.7,0.2-10.7h0c0,0-2.6,4.1-2.8,4.6l-3.7,6h-3.9l-3.7-6
			c-0.3-0.4-2.8-4.6-2.8-4.6h0c0,0,0.2,3.5,0.2,10.7v7.4h-7.4v-30.2h7.1l5.9,9.1c2.3,3.6,2.7,4.4,2.7,4.4h0c0,0,0.4-0.8,2.7-4.4
			l5.9-9.1H636.8z"/>
	</defs>
	<clipPath id="SVGID_52_">
		<use xlink:href="#SVGID_51_"  style="overflow:visible;"/>
	</clipPath>
	<g class="st25">
		<defs>
			<rect id="SVGID_53_" x="-27.2" y="-86.7" width="694.1" height="650.7"/>
		</defs>
		<clipPath id="SVGID_54_">
			<use xlink:href="#SVGID_53_"  style="overflow:visible;"/>
		</clipPath>
		<rect x="601.9" y="365.5" class="st26" width="38.2" height="37"/>
	</g>
</g>
</svg>
