<svg xmlns="http://www.w3.org/2000/svg" width="154.7mm" height="154.7mm" viewBox="0 0 438.5 438.5"><defs><style>.a{fill:#235e70;}</style></defs><title>twitter-blue</title><path class="a" d="M414.4,24.1C398.3,8,379,0,356.3,0H82.2Q48.3,0,24.1,24.1T0,82.2V356.3q0,33.9,24.1,58.1t58.1,24.1H356.3q33.9,0,58.1-24.1t24.1-58.1V82.2Q438.5,48.3,414.4,24.1ZM335.5,168.7a72.4,72.4,0,0,1,.3,7.7,170.7,170.7,0,0,1-7,48.1,174.6,174.6,0,0,1-21.4,46.3A180.9,180.9,0,0,1,273,309.9c-13.3,11.3-29.3,20.4-48,27.1s-38.6,10.1-60,10.1a168.7,168.7,0,0,1-91.9-26.8,109.8,109.8,0,0,0,14.3.9q41.4,0,74.5-25.7a57.2,57.2,0,0,1-34.7-12,60.9,60.9,0,0,1-21.3-29.7,73.3,73.3,0,0,0,11.1,1.1,57.5,57.5,0,0,0,14.6-2.3,60.2,60.2,0,0,1-35.1-20.7c-9.5-11.1-14.3-23.8-14.3-38.1v-.6c10.1,4.8,19.6,7.2,28.5,7.4q-25.9-17.4-26-50A59.8,59.8,0,0,1,93,120.3a170,170,0,0,0,54.8,44.3,171.3,171.3,0,0,0,69.1,18.6,57.7,57.7,0,0,1-1.4-13.7,60.1,60.1,0,0,1,60-60q26.3,0,43.7,18.8a119.1,119.1,0,0,0,38.3-14.6c-4.8,14.7-13.6,25.8-26.5,33.4a123.9,123.9,0,0,0,34.5-9.7A113.2,113.2,0,0,1,335.5,168.7Z"/></svg>